<?xml version="1.0" encoding="UTF-8"?>
<svg version="1.1" xmlns="http://www.w3.org/2000/svg" width="136" height="146">
<path d="M0 0 C44.88 0 89.76 0 136 0 C136 48.18 136 96.36 136 146 C91.12 146 46.24 146 0 146 C0 97.82 0 49.64 0 0 Z " fill="#FCFCFC" transform="translate(0,0)"/>
<path d="M0 0 C2.9375 0.75 2.9375 0.75 6 2 C6.875 4.125 6.875 4.125 7 6 C7.99 5.67 8.98 5.34 10 5 C14.72533684 11.21754848 17.38342909 15.94798912 17 24 C18.65 24 20.3 24 22 24 C22.66 26.97 23.32 29.94 24 33 C23.01 33.495 23.01 33.495 22 34 C24.80764728 34.77426109 24.80764728 34.77426109 28 35 C30.17328198 33.74504313 30.17328198 33.74504313 32 32 C34.125 30.75 34.125 30.75 36 30 C38 31 38 31 39 33 C39.66 33 40.32 33 41 33 C41 32.34 41 31.68 41 31 C45.93286751 26.78869556 50.62826995 25.34134268 57 25 C57 25.66 57 26.32 57 27 C58.27875 26.814375 59.5575 26.62875 60.875 26.4375 C64.75 25.875 64.75 25.875 67 27 C67 29.8125 67 29.8125 66 33 C61.14895768 36.30257994 55.65200843 36.30278617 50 36 C50 36.66 50 37.32 50 38 C55.94 37.505 55.94 37.505 62 37 C57.98899196 41.01100804 55.39532267 42.75327205 50 44 C47.1875 43.5625 47.1875 43.5625 45 43 C44.01 43.66 43.02 44.32 42 45 C42.99 45.495 42.99 45.495 44 46 C43.7215625 46.8971875 43.7215625 46.8971875 43.4375 47.8125 C42.77906313 50.16408762 42.77906313 50.16408762 44 53 C44.66 53 45.32 53 46 53 C46 52.34 46 51.68 46 51 C51.6307723 51.46923102 56.28468849 52.78161278 61 56 C62.8125 58.5625 62.8125 58.5625 64 61 C64.556875 61.515625 65.11375 62.03125 65.6875 62.5625 C67 64 67 64 67 68 C60.25 69.125 60.25 69.125 58 68 C58 68.66 58 69.32 58 70 C51.58076669 69.70887831 47.37899794 68.54784971 42 65 C42 64.01 42 63.02 42 62 C40.68 62 39.36 62 38 62 C37.67 62.99 37.34 63.98 37 65 C35.35 64.67 33.7 64.34 32 64 C32.495 64.45375 32.99 64.9075 33.5 65.375 C35 67 35 67 35 69 C35.99 69.33 36.98 69.66 38 70 C41.11588996 74.5402968 42.54998918 77.36261092 42 83 C41.01 83.495 41.01 83.495 40 84 C40.37125 85.0725 40.7425 86.145 41.125 87.25 C42 91 42 91 41.125 93.4375 C40.75375 93.953125 40.3825 94.46875 40 95 C36.34683329 93.75023244 35.21934164 93.32901247 33 90 C33 89.01 33 88.02 33 87 C32.34 87 31.68 87 31 87 C30.505 88.485 30.505 88.485 30 90 C26.38204753 85.10041123 24.4492405 81.2063471 24.140625 75.078125 C23.99651703 72.94852938 23.57304656 71.05187638 23 69 C22.67 69.66 22.34 70.32 22 71 C20.68 71 19.36 71 18 71 C17.34 68.03 16.68 65.06 16 62 C18.64 62 21.28 62 24 62 C24 61.34 24 60.68 24 60 C23.32453125 60.05800781 22.6490625 60.11601563 21.953125 60.17578125 C19.2311593 60.31345293 16.70527932 60.34562717 14 60 C11.625 57.75 11.625 57.75 10 55 C7.44320223 51.82604414 6.46935592 51.08901578 2.375 50.3125 C1.26125 50.209375 0.1475 50.10625 -1 50 C-1.66 49.67 -2.32 49.34 -3 49 C-3 48.01 -3 47.02 -3 46 C-2.34 46 -1.68 46 -1 46 C-1 45.34 -1 44.68 -1 44 C-1.99 44 -2.98 44 -4 44 C-4.99 40.535 -4.99 40.535 -6 37 C-3.8125 35.375 -3.8125 35.375 -1 34 C1.8125 34.8125 1.8125 34.8125 4 36 C3.67 34.35 3.34 32.7 3 31 C4.32 30.67 5.64 30.34 7 30 C7 28.35 7 26.7 7 25 C5.68 25.33 4.36 25.66 3 26 C2.15415002 24.44424022 1.32381601 22.8800388 0.5 21.3125 C0.0359375 20.44238281 -0.428125 19.57226562 -0.90625 18.67578125 C-2.04818792 15.88211171 -2.21504208 13.98370887 -2 11 C-1.01 11.66 -0.02 12.32 1 13 C0.505 11.948125 0.505 11.948125 0 10.875 C-1.10123871 7.70893872 -1.22195686 5.32935296 -1 2 C-0.67 1.34 -0.34 0.68 0 0 Z " fill="#ECF0E5" transform="translate(45,16)"/>
<path d="M0 0 C2.5625 2.375 2.5625 2.375 4 5 C4.99 5.66 5.98 6.32 7 7 C8.04087313 11.54816302 7.9679713 16.07722707 5.8515625 20.28125 C3.19983069 23.43745762 1.07090328 24.78637783 -2.99609375 25.59765625 C-6.16932076 25.7491322 -8.89336817 25.66473781 -12 25 C-14.625 22.5625 -14.625 22.5625 -16 20 C-16.66 19.67 -17.32 19.34 -18 19 C-19.02861585 7.39949908 -19.02861585 7.39949908 -15.75 2.75 C-11.41093879 -1.48525591 -5.6330437 -1.18334443 0 0 Z " fill="#99AD3E" transform="translate(71,51)"/>
<path d="M0 0 C0 0.99 0 1.98 0 3 C0.66 3 1.32 3 2 3 C2 2.34 2 1.68 2 1 C8.15234375 1.5859375 8.15234375 1.5859375 10 2 C10.33 2.66 10.66 3.32 11 4 C10.67 4.66 10.34 5.32 10 6 C11.32 5.67 12.64 5.34 14 5 C15.32 6.65 16.64 8.3 18 10 C12.58461538 14.06153846 12.58461538 14.06153846 9.625 13.75 C9.08875 13.5025 8.5525 13.255 8 13 C8 12.34 8 11.68 8 11 C6.40043584 12.0663761 4.80450744 13.13914215 3.23828125 14.25390625 C-1.59918289 17.54102691 -5.1591562 18.68709765 -11 19 C-10.67 18.01 -10.34 17.02 -10 16 C-10.515625 16.350625 -11.03125 16.70125 -11.5625 17.0625 C-14.94006667 18.3615641 -17.50468057 17.67217681 -21 17 C-20.8125 14.6875 -20.8125 14.6875 -20 12 C-17.36997358 10.06208579 -15.09886444 9.03295481 -12 8 C-12.99 7.34 -13.98 6.68 -15 6 C-10.24035245 1.80031099 -6.38380544 0 0 0 Z " fill="#EBEEE3" transform="translate(39,67)"/>
<path d="M0 0 C0.66 0.33 1.32 0.66 2 1 C3.23098442 4.9167686 2.83220851 8.02389268 2 12 C2.33 12 2.66 12 3 12 C2.56826496 18.15222436 1.34594658 21.81917949 -2 27 C-2.66 27 -3.32 27 -4 27 C-4 27.66 -4 28.32 -4 29 C-9.625 32 -9.625 32 -13 32 C-15.48325559 26.10226798 -16.27646832 19.78538882 -14.20703125 13.6484375 C-12.47617111 10.00103106 -11.44032584 8.29355056 -8 6 C-8 6.66 -8 7.32 -8 8 C-7.34 8 -6.68 8 -6 8 C-5.938125 7.236875 -5.87625 6.47375 -5.8125 5.6875 C-5 3 -5 3 -2.5625 1.125 C-1.716875 0.75375 -0.87125 0.3825 0 0 Z " fill="#F1F3EB" transform="translate(84,16)"/>
<path d="M0 0 C0 0.66 0 1.32 0 2 C1.27875 1.814375 2.5575 1.62875 3.875 1.4375 C7.75 0.875 7.75 0.875 10 2 C10 4.8125 10 4.8125 9 8 C4.14895768 11.30257994 -1.34799157 11.30278617 -7 11 C-7 11.66 -7 12.32 -7 13 C-1.06 12.505 -1.06 12.505 5 12 C0.98378854 16.01621146 -1.60302362 17.74463969 -7 19 C-9.875 18.625 -9.875 18.625 -12 18 C-12.66 18.33 -13.32 18.66 -14 19 C-16.3494053 18.39239518 -18.68529088 17.72870472 -21 17 C-20.44271087 13.65626525 -19.64826111 10.96687001 -18 8 C-17.34 8 -16.68 8 -16 8 C-16 7.34 -16 6.68 -16 6 C-11.02507251 2.03734064 -6.37093045 0 0 0 Z " fill="#EFF2E9" transform="translate(102,41)"/>
<path d="M0 0 C0.33 2.64 0.66 5.28 1 8 C-0.65 8.66 -2.3 9.32 -4 10 C-2.35 10 -0.7 10 1 10 C0.72569093 16.17195408 -0.03814035 20.17148355 -4 25 C-4.33 25 -4.66 25 -5 25 C-5.33 23.35 -5.66 21.7 -6 20 C-6.14695312 20.62648438 -6.29390625 21.25296875 -6.4453125 21.8984375 C-7.13383034 24.40717493 -7.83713809 26.6700166 -9 29 C-12.1875 30.5625 -12.1875 30.5625 -15 31 C-16.26026798 28.47946405 -15.91874445 27.1457902 -15.5625 24.375 C-15.46066406 23.55773437 -15.35882813 22.74046875 -15.25390625 21.8984375 C-15.17011719 21.27195312 -15.08632813 20.64546875 -15 20 C-15.66 20 -16.32 20 -17 20 C-16.59796387 14.17047614 -15.85321325 10.64652186 -12 6 C-11.01 5.67 -10.02 5.34 -9 5 C-8.690625 4.360625 -8.38125 3.72125 -8.0625 3.0625 C-6.10713217 -0.73321403 -3.92606625 -1.30868875 0 0 Z " fill="#E6E9DB" transform="translate(60,80)"/>
<path d="M0 0 C1.98 0 3.96 0 6 0 C6.66 2.97 7.32 5.94 8 9 C4.49223216 10.60355101 1.85645121 11.22036864 -2 11 C-2.268125 11.598125 -2.53625 12.19625 -2.8125 12.8125 C-4 15 -4 15 -5.53125 16.28125 C-7.58232128 18.6814398 -7.50432478 20.57352122 -7.6875 23.6875 C-7.75324219 24.68136719 -7.81898437 25.67523438 -7.88671875 26.69921875 C-7.92410156 27.45847656 -7.96148437 28.21773437 -8 29 C-8.66 28.34 -9.32 27.68 -10 27 C-12.32716 26.62599214 -14.66117862 26.29235267 -17 26 C-17.66 25.67 -18.32 25.34 -19 25 C-19 24.01 -19 23.02 -19 22 C-18.34 22 -17.68 22 -17 22 C-17 21.34 -17 20.68 -17 20 C-17.99 20 -18.98 20 -20 20 C-20.66 17.69 -21.32 15.38 -22 13 C-19.8125 11.375 -19.8125 11.375 -17 10 C-14.1875 10.8125 -14.1875 10.8125 -12 12 C-12.33 10.35 -12.66 8.7 -13 7 C-9.67438135 5.23937836 -8.40826005 4.89215772 -4.6875 5.875 C-3.800625 6.24625 -2.91375 6.6175 -2 7 C-1.34 4.69 -0.68 2.38 0 0 Z " fill="#F1F4E9" transform="translate(61,40)"/>
<path d="M0 0 C5.6307723 0.46923102 10.28468849 1.78161278 15 5 C16.8125 7.5625 16.8125 7.5625 18 10 C18.556875 10.515625 19.11375 11.03125 19.6875 11.5625 C21 13 21 13 21 17 C14.25 18.125 14.25 18.125 12 17 C12 17.66 12 18.32 12 19 C5.58076669 18.70887831 1.37899794 17.54784971 -4 14 C-4 13.01 -4 12.02 -4 11 C-4.99 10.67 -5.98 10.34 -7 10 C-4.35261084 8.5393715 -3.10551666 8 0 8 C-0.185625 7.05125 -0.37125 6.1025 -0.5625 5.125 C-1 2 -1 2 0 0 Z " fill="#EAEEE1" transform="translate(91,67)"/>
<path d="M0 0 C0.875 1.625 0.875 1.625 1 4 C0.17433643 6.4506957 -0.87489407 8.65977966 -2 11 C0.31 11.33 2.62 11.66 5 12 C4.67 12.99 4.34 13.98 4 15 C1.69 14.34 -0.62 13.68 -3 13 C-3 15.31 -3 17.62 -3 20 C-3.66 20 -4.32 20 -5 20 C-5.01417969 19.39671875 -5.02835937 18.7934375 -5.04296875 18.171875 C-5.31278946 12.71123416 -5.31278946 12.71123416 -8.5625 8.4375 C-9.366875 7.963125 -10.17125 7.48875 -11 7 C-10.9375 5.25 -10.9375 5.25 -10 3 C-6.69928831 0.41203839 -4.20321079 -1.40107026 0 0 Z " fill="#F0F3EA" transform="translate(83,47)"/>
<path d="M0 0 C0.33 0.66 0.66 1.32 1 2 C-4.90909091 8.24675325 -4.90909091 8.24675325 -9 10 C-12.8125 9.6875 -12.8125 9.6875 -16 9 C-15.8125 6.6875 -15.8125 6.6875 -15 4 C-10.07105525 0.36814598 -6.02006361 -0.11358611 0 0 Z " fill="#7B8B39" transform="translate(34,75)"/>
<path d="M0 0 C1.09295989 2.57626259 1.23192405 4.30422786 0.34375 6.96875 C-1.70083086 11.38768283 -3.83117904 14.29589992 -8 17 C-8.33 17 -8.66 17 -9 17 C-9.58079748 6.11542497 -9.58079748 6.11542497 -6 1 C-2.65822785 -1.32911392 -2.65822785 -1.32911392 0 0 Z " fill="#7A8B37" transform="translate(86,17)"/>
<path d="M0 0 C5.93002267 -0.37851209 10.47239641 0.89424625 16 3 C16.33 4.98 16.66 6.96 17 9 C12.76529129 10.01633009 10.73079425 10.38689107 6.8125 8.3125 C4.36832434 6.30284445 2.07214802 4.39094002 0 2 C0 1.34 0 0.68 0 0 Z " fill="#7A8B38" transform="translate(95,75)"/>
<path d="M0 0 C0 2.8125 0 2.8125 -1 6 C-5.85104232 9.30257994 -11.34799157 9.30278617 -17 9 C-15.21878147 4.4659892 -11.98934617 2.3476216 -8.0625 -0.3125 C-5.16239111 -1.27920296 -2.93325252 -0.6666483 0 0 Z " fill="#798A36" transform="translate(112,43)"/>
<path d="M0 0 C4.46159164 3.44703793 8.26053329 6.43370653 10 12 C9.1875 15.375 9.1875 15.375 8 18 C4.6581552 17.0967987 3.24394346 16.33647374 1.1875 13.5 C-0.36914196 8.91200265 -0.25594757 4.7966471 0 0 Z " fill="#788935" transform="translate(77,93)"/>
<path d="M0 0 C4.70117286 1.50792337 8.00663515 4.42940488 11.3125 8.0625 C11.3125 8.7225 11.3125 9.3825 11.3125 10.0625 C5.61086742 10.40459795 1.16659556 10.49588466 -3.6875 7.0625 C-5.0625 4.375 -5.0625 4.375 -5.6875 2.0625 C-2.6875 0.0625 -2.6875 0.0625 0 0 Z " fill="#798A36" transform="translate(23.6875,41.9375)"/>
<path d="M0 0 C2.9375 0.8125 2.9375 0.8125 4.9375 3.8125 C4.6133631 7.13490324 4.32973697 8.42026303 1.9375 10.8125 C-1.1929173 11.14552312 -3.24148298 11.28921956 -6 9.6875 C-7.0625 7.8125 -7.0625 7.8125 -6.9375 4.75 C-5.7077917 0.62169358 -4.27894903 -0.26197647 0 0 Z " fill="#66762F" transform="translate(35.0625,89.1875)"/>
<path d="M0 0 C3.5 0.1875 3.5 0.1875 7 1 C9 4 9 4 8.75 6.5625 C8 9 8 9 6 11 C3.0625 11.375 3.0625 11.375 0 11 C-1.9375 9.3125 -1.9375 9.3125 -3 7 C-2.75925978 3.62963689 -2.41201979 2.41201979 0 0 Z " fill="#65752E" transform="translate(18,58)"/>
<path d="M0 0 C2.875 0.6875 2.875 0.6875 6 2 C7.95720699 5.65688675 8.22384974 8.71023594 8.125 12.8125 C8.10695313 13.78832031 8.08890625 14.76414062 8.0703125 15.76953125 C8.03550781 16.87361328 8.03550781 16.87361328 8 18 C6.86800647 17.0919838 5.74467637 16.17316174 4.625 15.25 C3.99851562 14.73953125 3.37203125 14.2290625 2.7265625 13.703125 C-0.08682907 10.92792426 -0.95145085 8.80915253 -1.1875 4.875 C-1 2 -1 2 0 0 Z " fill="#778834" transform="translate(45,16)"/>
<path d="M0 0 C0.33 0 0.66 0 1 0 C1.05449838 1.72880982 1.09301688 3.45812712 1.125 5.1875 C1.14820313 6.15042969 1.17140625 7.11335938 1.1953125 8.10546875 C0.98716855 11.19016207 0.45709087 13.27754074 -1 16 C-4.125 17.3125 -4.125 17.3125 -7 18 C-8.48731668 15.02536663 -8.4313052 13.32721157 -8 10 C-5.76043298 6.29265521 -3.05745255 3.05745255 0 0 Z " fill="#768832" transform="translate(52,93)"/>
<path d="M0 0 C3.0625 0.375 3.0625 0.375 5 2.0625 C6.35219442 5.00551139 6.17318406 6.36028613 5.0625 9.375 C1.84106724 11.52262184 0.8029533 11.936068 -2.9375 11.375 C-4.8125 9.6875 -4.8125 9.6875 -5.9375 7.375 C-5.616701 2.88381401 -4.74066611 0.60519142 0 0 Z " fill="#64742C" transform="translate(33.9375,26.625)"/>
<path d="M0 0 C3.0625 0.3125 3.0625 0.3125 4.9375 1.5 C6.46909584 3.96757108 6.49072025 5.45769831 6.0625 8.3125 C4.9375 10.125 4.9375 10.125 3.0625 11.3125 C0 11.625 0 11.625 -2.9375 11.3125 C-4.9375 9.3125 -4.9375 9.3125 -5.1875 5.8125 C-4.87458101 1.43163414 -4.40975115 0.46912246 0 0 Z " fill="#65742D" transform="translate(64.9375,13.6875)"/>
<path d="M0 0 C1.875 1.0625 1.875 1.0625 3 3 C2.55555556 9.44444444 2.55555556 9.44444444 1 11 C-2.4375 11.1875 -2.4375 11.1875 -6 11 C-8 9 -8 9 -8.3125 6.0625 C-8 3 -8 3 -6.8125 1.125 C-4.34492892 -0.40659584 -2.85480169 -0.42822025 0 0 Z " fill="#64732C" transform="translate(99,89)"/>
<path d="M0 0 C1.8125 1.1875 1.8125 1.1875 3 3 C3.42822025 5.85480169 3.40659584 7.34492892 1.875 9.8125 C-0.83445834 11.52849028 -2.86295684 11.333728 -6 11 C-8 9 -8 9 -8.3125 5.5 C-8.209375 4.345 -8.10625 3.19 -8 2 C-4.76746204 -0.15502531 -3.74849077 -0.46856135 0 0 Z " fill="#63732B" transform="translate(112,58)"/>
<path d="M0 0 C2.9375 0.75 2.9375 0.75 4.9375 2.75 C5.29773622 5.55984248 5.32082602 7.13241919 3.8125 9.5625 C1.10304166 11.27849028 -0.92545684 11.083728 -4.0625 10.75 C-6.0625 8.75 -6.0625 8.75 -6.375 5.25 C-6.271875 4.095 -6.16875 2.94 -6.0625 1.75 C-3.0625 -0.25 -3.0625 -0.25 0 0 Z " fill="#63732B" transform="translate(66.0625,102.25)"/>
<path d="M0 0 C-1 2 -2 4 -3 6 C-1.68 6.99 -0.36 7.98 1 9 C-2 10 -2 10 -4.1875 9.0625 C-4.785625 8.711875 -5.38375 8.36125 -6 8 C-6.1546875 9.1446875 -6.1546875 9.1446875 -6.3125 10.3125 C-7.05539884 13.21655911 -7.56993983 14.28995766 -10 16 C-11.32 16 -12.64 16 -14 16 C-14.66 13.03 -15.32 10.06 -16 7 C-13.36 7 -10.72 7 -8 7 C-8 6.34 -8 5.68 -8 5 C-2.52380952 0 -2.52380952 0 0 0 Z " fill="#F3F5EE" transform="translate(77,71)"/>
<path d="M0 0 C1.8125 1.1875 1.8125 1.1875 3 3 C3.42674516 5.84496772 3.36066991 7.36352369 1.9375 9.875 C-1.11569315 11.64782183 -3.66411708 10.69235306 -7 10 C-8.33359073 3.57451737 -8.33359073 3.57451737 -6.875 1.0625 C-4.36352369 -0.36066991 -2.84496772 -0.42674516 0 0 Z " fill="#617128" transform="translate(99,27)"/>
<path d="M0 0 C5.75 1.625 5.75 1.625 8 5 C6.515 7.475 6.515 7.475 5 10 C2.69 9.67 0.38 9.34 -2 9 C-1.125 2.25 -1.125 2.25 0 0 Z " fill="#7B8C3A" transform="translate(71,79)"/>
<path d="M0 0 C0.99 0.33 1.98 0.66 3 1 C3.33 3.64 3.66 6.28 4 9 C1.69 9.33 -0.62 9.66 -3 10 C-3.99 8.02 -4.98 6.04 -6 4 C-3.1875 1.9375 -3.1875 1.9375 0 0 Z " fill="#7A8B38" transform="translate(57,79)"/>
<path d="M0 0 C1.1875 3.0625 1.1875 3.0625 2 6 C-2.625 9 -2.625 9 -6 9 C-6.66 6.36 -7.32 3.72 -8 1 C-3.375 -1.125 -3.375 -1.125 0 0 Z " fill="#7A8B39" transform="translate(77,39)"/>
<path d="M0 0 C0.66 2.31 1.32 4.62 2 7 C-0.15622879 8.30913891 -1.57952098 9 -4.125 9 C-6 8 -6 8 -7.25 4.9375 C-7.4975 3.968125 -7.745 2.99875 -8 2 C-4.77208445 -0.1519437 -3.71599191 -0.20086443 0 0 Z " fill="#788935" transform="translate(89,68)"/>
<path d="M0 0 C6.15234375 0.5859375 6.15234375 0.5859375 8 1 C8.33 1.66 8.66 2.32 9 3 C8.06553465 5.03144641 7.06775224 7.03533587 6 9 C1.25 8.125 1.25 8.125 -1 7 C-0.67 4.69 -0.34 2.38 0 0 Z " fill="#788935" transform="translate(41,68)"/>
<path d="M0 0 C0.33 0 0.66 0 1 0 C1.00257812 0.59167969 1.00515625 1.18335938 1.0078125 1.79296875 C1.17053391 6.60261197 1.17053391 6.60261197 3.40234375 10.7109375 C5.21947959 12.23632914 5.21947959 12.23632914 8 14 C7.67 15.32 7.34 16.64 7 18 C5 17 5 17 3.625 14.9375 C3.08875 14.298125 2.5525 13.65875 2 13 C0.68 13 -0.64 13 -2 13 C-2 12.01 -2 11.02 -2 10 C-4.64 9.34 -7.28 8.68 -10 8 C-6.1496895 5.43312633 -4.41430237 6.16711276 0 7 C0 4.69 0 2.38 0 0 Z " fill="#FBFCFA" transform="translate(51,60)"/>
<path d="M0 0 C2.02045442 0.60183749 4.02111039 1.27306096 6 2 C7 4 7 4 6.0625 7.125 C5.711875 8.07375 5.36125 9.0225 5 10 C2.36 9.34 -0.28 8.68 -3 8 C-2.45276317 4.62537285 -1.9451 2.91765 0 0 Z " fill="#778934" transform="translate(84,50)"/>
<path d="M0 0 C2.50286528 2.23470114 2.46722566 4.31059508 2.75 7.5625 C0.04120665 8.91689668 -2.25933268 8.62751451 -5.25 8.5625 C-5.91 6.5825 -6.57 4.6025 -7.25 2.5625 C-2.91666667 -0.56712963 -2.91666667 -0.56712963 0 0 Z " fill="#788935" transform="translate(46.25,50.4375)"/>
<path d="M0 0 C2.31 0.66 4.62 1.32 7 2 C6.67 4.31 6.34 6.62 6 9 C5.01 9.33 4.02 9.66 3 10 C0.3125 8.5625 0.3125 8.5625 -2 7 C-1.125 2.25 -1.125 2.25 0 0 Z " fill="#768833" transform="translate(54,38)"/>
<path d="M0 0 C2.29239061 0.08678763 4.5839807 0.19495273 6.875 0.3125 C8.15117187 0.37050781 9.42734375 0.42851563 10.7421875 0.48828125 C11.81726563 0.65714844 12.89234375 0.82601562 14 1 C16 4 16 4 16 7 C9.49955416 6.65176183 5.14856037 5.05312199 0 1 C0 0.67 0 0.34 0 0 Z " fill="#7C8D3C" transform="translate(23,53)"/>
<path d="M0 0 C2.97 0.495 2.97 0.495 6 1 C6 5.29 6 9.58 6 14 C1.94564966 9.94564966 0.12665188 7.84966738 -0.125 2.1875 C-0.08375 1.465625 -0.0425 0.74375 0 0 Z " fill="#7D8D3D" transform="translate(69,90)"/>
<path d="M0 0 C-5.01372252 3.52913975 -8.83543922 5.61471495 -15 6 C-15.042721 4.33388095 -15.04063832 2.66617115 -15 1 C-13.28415503 -0.71584497 -10.96799522 -0.40976422 -8.625 -0.625 C-7.15933594 -0.76808594 -7.15933594 -0.76808594 -5.6640625 -0.9140625 C-3 -1 -3 -1 0 0 Z " fill="#7B8C3A" transform="translate(107,54)"/>
<path d="M0 0 C-1.37815706 1.37215202 -2.77829151 2.72225767 -4.1875 4.0625 C-4.96480469 4.81660156 -5.74210937 5.57070313 -6.54296875 6.34765625 C-9 8 -9 8 -11.80078125 7.74609375 C-12.52652344 7.49988281 -13.25226563 7.25367188 -14 7 C-14 6.01 -14 5.02 -14 4 C-9.43084939 0.38718324 -5.71592489 -1.9053083 0 0 Z " fill="#7E8E3E" transform="translate(102,42)"/>
<path d="M0 0 C0.33 0 0.66 0 1 0 C1 4.29 1 8.58 1 13 C-0.98 13.33 -2.96 13.66 -5 14 C-4.58882123 8.03790777 -3.74729595 4.68411993 0 0 Z " fill="#7D8E3D" transform="translate(74,23)"/>
<path d="M0 0 C1.5625 1.25 1.5625 1.25 3 3 C2.62348725 6.62681669 0.89365219 8.60128651 -1.5 11.25 C-2.1290625 11.95640625 -2.758125 12.6628125 -3.40625 13.390625 C-3.9321875 13.92171875 -4.458125 14.4528125 -5 15 C-5.33 15 -5.66 15 -6 15 C-5.57429438 8.82726847 -4.57782148 4.57782148 0 0 Z " fill="#7B8C3A" transform="translate(49,85)"/>
<path d="M0 0 C3.14818625 1.2592745 4.900123 3.41167092 7.1875 5.875 C7.785625 6.473125 8.38375 7.07125 9 7.6875 C9.391875 8.079375 9.78375 8.47125 10.1875 8.875 C4.03527564 8.44326496 0.36832051 7.22094658 -4.8125 3.875 C-4.4825 2.885 -4.1525 1.895 -3.8125 0.875 C-1.8125 -0.125 -1.8125 -0.125 0 0 Z " fill="#7C8D3C" transform="translate(91.8125,77.125)"/>
<path d="M0 0 C2.97 0.495 2.97 0.495 6 1 C6 1.99 6 2.98 6 4 C4.44424022 4.84584998 2.8800388 5.67618399 1.3125 6.5 C0.00732422 7.19609375 0.00732422 7.19609375 -1.32421875 7.90625 C-4.11788829 9.04818792 -6.01629113 9.21504208 -9 9 C-8.2575 8.443125 -7.515 7.88625 -6.75 7.3125 C-4.08292005 5.06972822 -2.08443768 2.77925025 0 0 Z " fill="#7B8C3B" transform="translate(37,77)"/>
<path d="M0 0 C5.77378925 0.4811491 9.95859836 2.18467181 15 5 C15 5.99 15 6.98 15 8 C13.35 8.66 11.7 9.32 10 10 C9.278125 9.071875 8.55625 8.14375 7.8125 7.1875 C5.51297094 4.4017848 3.1919005 2.73274599 0 1 C0 0.67 0 0.34 0 0 Z " fill="#7D8E3D" transform="translate(28,41)"/>
<path d="M0 0 C4.30860299 4.30860299 5.89860756 6.31310045 6.125 12.3125 C6.08375 13.199375 6.0425 14.08625 6 15 C3.03 14.505 3.03 14.505 0 14 C0 9.38 0 4.76 0 0 Z " fill="#7D8D3E" transform="translate(55,22)"/>
<path d="M0 0 C3.63286955 1.21095652 4.43006752 2.79359383 6.21484375 6.078125 C7.31643358 8.77455384 7.27986167 11.13141789 7 14 C5.88625 12.8553125 5.88625 12.8553125 4.75 11.6875 C2.5736677 9.5606298 0.47832204 7.7440044 -2 6 C-1.34 4.02 -0.68 2.04 0 0 Z " fill="#7C8C3B" transform="translate(80,85)"/>
<path d="M0 0 C-0.875 4.875 -0.875 4.875 -2 6 C-4.18292774 6.23481693 -6.37203174 6.41363323 -8.5625 6.5625 C-9.76003906 6.64628906 -10.95757812 6.73007813 -12.19140625 6.81640625 C-13.11824219 6.87699219 -14.04507812 6.93757813 -15 7 C-10.40630772 1.86587333 -6.91151486 0 0 0 Z " fill="#7C8C3B" transform="translate(39,67)"/>
<path d="M0 0 C0.556875 0.7425 1.11375 1.485 1.6875 2.25 C3.93027178 4.91707995 6.22074975 6.91556232 9 9 C8.67 10.65 8.34 12.3 8 14 C7.01 14.33 6.02 14.66 5 15 C4.15415002 13.44424022 3.32381601 11.8800388 2.5 10.3125 C2.0359375 9.44238281 1.571875 8.57226562 1.09375 7.67578125 C-0.04818792 4.88211171 -0.21504208 2.98370887 0 0 Z " fill="#7A8B39" transform="translate(43,27)"/>
<path d="M0 0 C0.33 0 0.66 0 1 0 C0.59080462 5.93333307 -0.18890008 9.38048494 -4 14 C-4.66 14 -5.32 14 -6 14 C-6.66 12.02 -7.32 10.04 -8 8 C-6.50260417 6.79557292 -5.00520833 5.59114583 -3.5078125 4.38671875 C-1.74707893 2.87729455 -1.74707893 2.87729455 0 0 Z " fill="#7A8B39" transform="translate(86,28)"/>
<path d="M0 0 C-0.2757735 6.2049038 -1.10640794 10.10160999 -5 15 C-5.82558668 12.08381479 -6.18920445 9.40464506 -6.25 6.375 C-6.27578125 5.59898438 -6.3015625 4.82296875 -6.328125 4.0234375 C-6.21984375 3.35570313 -6.1115625 2.68796875 -6 2 C-3 0 -3 0 0 0 Z " fill="#798A38" transform="translate(61,90)"/>
<path d="M0 0 C3.30309104 0.36701012 4.12483621 1.13107802 6.5 3.625 C7.7375 4.800625 7.7375 4.800625 9 6 C11.27523089 5.95502158 11.27523089 5.95502158 13 5 C13.33 5.66 13.66 6.32 14 7 C12.68 7.99 11.36 8.98 10 10 C10.33 11.32 10.66 12.64 11 14 C10.01 13.67 9.02 13.34 8 13 C8 11.68 8 10.36 8 9 C7.38125 8.9175 6.7625 8.835 6.125 8.75 C4 8 4 8 2.875 6.1875 C2.58625 5.465625 2.2975 4.74375 2 4 C1.62875 3.2575 1.2575 2.515 0.875 1.75 C0.58625 1.1725 0.2975 0.595 0 0 Z " fill="#F4F6F1" transform="translate(30,44)"/>
<path d="M0 0 C6.2049038 0.2757735 10.10160999 1.10640794 15 5 C11.6888987 6.10370043 9.75251051 5.92673641 6.3125 5.5625 C5.31863281 5.46066406 4.32476562 5.35882813 3.30078125 5.25390625 C2.54152344 5.17011719 1.78226562 5.08632812 1 5 C0.67 3.35 0.34 1.7 0 0 Z " fill="#778835" transform="translate(92,68)"/>
<path d="M0 0 C2 3.75 2 3.75 2 6 C2.928125 5.484375 3.85625 4.96875 4.8125 4.4375 C8 3 8 3 11 4 C10 5 9 6 8 7 C7.5771875 7.53625 7.154375 8.0725 6.71875 8.625 C5 10 5 10 2.51953125 10.07421875 C1.17955078 9.88279297 1.17955078 9.88279297 -0.1875 9.6875 C-1.08855469 9.56761719 -1.98960938 9.44773437 -2.91796875 9.32421875 C-3.60503906 9.21722656 -4.29210937 9.11023437 -5 9 C-2 7 -2 7 0 7 C-0.66 5.02 -1.32 3.04 -2 1 C-1.34 0.67 -0.68 0.34 0 0 Z " fill="#F1F4EB" transform="translate(69,42)"/>
<path d="M0 0 C2.64 0 5.28 0 8 0 C7.34 2.97 6.68 5.94 6 9 C4.68 9 3.36 9 2 9 C1.34 6.03 0.68 3.06 0 0 Z " fill="#7F9041" transform="translate(61,78)"/>
<path d="M0 0 C0 2.31 0 4.62 0 7 C-6.75 6.125 -6.75 6.125 -9 5 C-9 4.01 -9 3.02 -9 2 C-3.375 0 -3.375 0 0 0 Z " fill="#7F8F40" transform="translate(51,60)"/>
<path d="M0 0 C2.1875 2.8125 2.1875 2.8125 4 6 C3.67 6.99 3.34 7.98 3 9 C-0.77545388 7.90931332 -3.47043472 7.0916909 -6 4 C-2.25 0 -2.25 0 0 0 Z " fill="#7B8C3B" transform="translate(79,72)"/>
<path d="M0 0 C3.96 1.98 3.96 1.98 8 4 C6 8 6 8 3.875 8.75 C2.946875 8.87375 2.946875 8.87375 2 9 C0.4375 6.1875 0.4375 6.1875 -1 3 C-0.67 2.01 -0.34 1.02 0 0 Z " fill="#7C8C3B" transform="translate(49,46)"/>
<path d="M0 0 C0.99 0 1.98 0 3 0 C3.66 2.97 4.32 5.94 5 9 C2.36 9 -0.28 9 -3 9 C-2.01 6.03 -1.02 3.06 0 0 Z " fill="#7A8B38" transform="translate(64,40)"/>
<path d="M0 0 C-1.2491742 3.45925163 -2.67527795 6.14693203 -5 9 C-6.65 7.02 -8.3 5.04 -10 3 C-3.375 -1.125 -3.375 -1.125 0 0 Z " fill="#7A8B38" transform="translate(83,47)"/>
<path d="M0 0 C2.64 0 5.28 0 8 0 C8 0.66 8 1.32 8 2 C8.99 2 9.98 2 11 2 C11 1.34 11 0.68 11 0 C11.66 0 12.32 0 13 0 C13 1.98 13 3.96 13 6 C12.34 6 11.68 6 11 6 C11 5.34 11 4.68 11 4 C10.01 4 9.02 4 8 4 C8 4.66 8 5.32 8 6 C7.34 6 6.68 6 6 6 C6 4.68 6 3.36 6 2 C5.01 2 4.02 2 3 2 C2.67 3.32 2.34 4.64 2 6 C2 4.35 2 2.7 2 1 C1.34 0.67 0.68 0.34 0 0 Z " fill="#7B7B7B" transform="translate(51,127)"/>
<path d="M0 0 C3.16115776 1.36983503 3.9927092 1.9890638 6 5 C3.1875 7.0625 3.1875 7.0625 0 9 C-0.99 8.67 -1.98 8.34 -3 8 C-1.125 2.25 -1.125 2.25 0 0 Z " fill="#788935" transform="translate(51,72)"/>
<path d="M0 0 C4.455 0.99 4.455 0.99 9 2 C9 2.99 9 3.98 9 5 C6.03 5.66 3.06 6.32 0 7 C0 4.69 0 2.38 0 0 Z " fill="#768734" transform="translate(80,60)"/>
<path d="M0 0 C0.99 0.33 1.98 0.66 3 1 C3 2.65 3 4.3 3 6 C4.32 6.33 5.64 6.66 7 7 C5.35 7 3.7 7 2 7 C2 8.98 2 10.96 2 13 C1.67 11.68 1.34 10.36 1 9 C-0.98 9.33 -2.96 9.66 -5 10 C-4.34 9.01 -3.68 8.02 -3 7 C-1.68 7 -0.36 7 1 7 C0.67 4.69 0.34 2.38 0 0 Z " fill="#F1F3EC" transform="translate(60,81)"/>
<path d="M0 0 C1.485 0.99 1.485 0.99 3 2 C3.33 1.34 3.66 0.68 4 0 C4.66 0 5.32 0 6 0 C6.66 0.66 7.32 1.32 8 2 C8.66 1.34 9.32 0.68 10 0 C9.25 4.75 9.25 4.75 7 7 C6.67 6.01 6.34 5.02 6 4 C5.34 4 4.68 4 4 4 C3.67 4.99 3.34 5.98 3 7 C0 3.375 0 3.375 0 0 Z " fill="#434343" transform="translate(18,126)"/>
<path d="M0 0 C-0.99 1.485 -0.99 1.485 -2 3 C-4.8203125 3.29296875 -4.8203125 3.29296875 -8.125 3.1875 C-9.76855469 3.14689453 -9.76855469 3.14689453 -11.4453125 3.10546875 C-12.70988281 3.05326172 -12.70988281 3.05326172 -14 3 C-14 2.34 -14 1.68 -14 1 C-12.04310963 0.63794536 -10.08442332 0.28558579 -8.125 -0.0625 C-7.03445312 -0.25972656 -5.94390625 -0.45695312 -4.8203125 -0.66015625 C-2 -1 -2 -1 0 0 Z " fill="#F5F7F2" transform="translate(109,51)"/>
<path d="M0 0 C2.56269497 1.04109483 4.02610343 2.02610343 6 4 C5.625 6.125 5.625 6.125 5 8 C1.85311922 6.42655961 0.20034593 3.72148049 -2 1 C-1.34 0.67 -0.68 0.34 0 0 Z " fill="#E6EAD7" transform="translate(53,70)"/>
<path d="M0 0 C0.66 0 1.32 0 2 0 C2 0.99 2 1.98 2 3 C3.32 3 4.64 3 6 3 C6.33 2.01 6.66 1.02 7 0 C7 2.31 7 4.62 7 7 C6.67 6.01 6.34 5.02 6 4 C4.68 4 3.36 4 2 4 C2 4.99 2 5.98 2 7 C1.34 7 0.68 7 0 7 C0 4.69 0 2.38 0 0 Z " fill="#414141" transform="translate(70,126)"/>
<path d="M0 0 C0.33 0.66 0.66 1.32 1 2 C1.99 2 2.98 2 4 2 C4 1.34 4 0.68 4 0 C4.66 0 5.32 0 6 0 C6 1.98 6 3.96 6 6 C5.34 6 4.68 6 4 6 C4 5.34 4 4.68 4 4 C3.01 4 2.02 4 1 4 C0.67 4.66 0.34 5.32 0 6 C0 4.02 0 2.04 0 0 Z " fill="#676767" transform="translate(108,127)"/>
<path d="M0 0 C2.46800047 1.15173355 4.04783565 2.04783565 6 4 C6 4.99 6 5.98 6 7 C2.63279613 5.60667426 1.0140476 4.0210714 -1 1 C-0.67 0.67 -0.34 0.34 0 0 Z " fill="#E4E9D8" transform="translate(79,92)"/>
<path d="M0 0 C2.88575819 0.39803561 3.82189513 0.79009069 5.75 3.0625 C6.1625 3.701875 6.575 4.34125 7 5 C6.01 6.485 6.01 6.485 5 8 C0 2.25 0 2.25 0 0 Z " fill="#E2E7D4" transform="translate(30,44)"/>
<path d="M0 0 C2.2477975 2.05233685 3.0022242 3.00667261 4 6 C1.69 6 -0.62 6 -3 6 C-2.01 4.02 -1.02 2.04 0 0 Z " fill="#6A6A6A" transform="translate(89,127)"/>
<path d="M0 0 C2.2477975 2.05233685 3.0022242 3.00667261 4 6 C1.69 6 -0.62 6 -3 6 C-2.01 4.02 -1.02 2.04 0 0 Z " fill="#6A6A6A" transform="translate(39,127)"/>
<path d="M0 0 C-1.44253657 3.36591866 -3.33264727 5.51047079 -6 8 C-6 4 -6 4 -4.125 1.75 C-2 0 -2 0 0 0 Z " fill="#F0F3EA" transform="translate(51,93)"/>
<path d="M0 0 C-2.8125 2.0625 -2.8125 2.0625 -6 4 C-6.99 3.67 -7.98 3.34 -9 3 C-8 1 -8 1 -5.625 -0.1875 C-3 -1 -3 -1 0 0 Z " fill="#819143" transform="translate(107,54)"/>
<path d="M0 0 C3.465 1.485 3.465 1.485 7 3 C6.01 3.495 6.01 3.495 5 4 C4.67 4.66 4.34 5.32 4 6 C2.02 5.01 0.04 4.02 -2 3 C-1.34 2.67 -0.68 2.34 0 2 C0 1.34 0 0.68 0 0 Z " fill="#E3E8D7" transform="translate(86,47)"/>
<path d="M0 0 C-0.99 1.485 -0.99 1.485 -2 3 C-4.64 2.34 -7.28 1.68 -10 1 C-6.1496895 -1.56687367 -4.41430237 -0.83288724 0 0 Z " fill="#EBEEE2" transform="translate(51,67)"/>
<path d="M0 0 C1.875 0.25 1.875 0.25 4 1 C5.25 3.0625 5.25 3.0625 6 5 C4.125 4.75 4.125 4.75 2 4 C0.75 1.9375 0.75 1.9375 0 0 Z " fill="#E9EDD9" transform="translate(72,52)"/>
<path d="M0 0 C-2.31 0.66 -4.62 1.32 -7 2 C-7 1.34 -7 0.68 -7 0 C-7.99 -0.33 -8.98 -0.66 -10 -1 C-5.92224809 -1.9267618 -3.57818963 -2.33958553 0 0 Z " fill="#E5E9D9" transform="translate(51,60)"/>
<path d="M0 0 C3.63 0.33 7.26 0.66 11 1 C11 1.33 11 1.66 11 2 C8.69 2.66 6.38 3.32 4 4 C2.68 2.68 1.36 1.36 0 0 Z " fill="#8B9954" transform="translate(23,53)"/>
<path d="M0 0 C0.99 0 1.98 0 3 0 C2.34 2.64 1.68 5.28 1 8 C0.34 7.67 -0.32 7.34 -1 7 C-0.67 4.69 -0.34 2.38 0 0 Z " fill="#EBEEE3" transform="translate(61,40)"/>
</svg>
